<svg width="70" height="52" viewBox="0 0 70 52" fill="none" xmlns="http://www.w3.org/2000/svg">
<g id="label">
<g id="text">
<path id="Vector" d="M3.51534 51.3184L2.73046 49.487C2.38162 48.6439 2.64325 48.0044 3.39906 47.6556C4.18394 47.3067 4.85255 47.5684 5.20139 48.4114L5.75371 49.6905L7.46883 48.9346L7.70139 49.487L3.51534 51.3184ZM5.2886 49.8939L4.82348 48.7893C4.56185 48.1498 4.15487 48.0044 3.66069 48.2079C3.1665 48.4114 3.02115 48.8184 3.28278 49.4579L3.7479 50.5625L5.2886 49.8939Z" fill="#FFFCF6"/>
<path id="Vector_2" d="M1.36621 45.6802L0.872022 43.5872C0.668533 42.7441 1.01737 42.1337 1.71504 41.9592C2.2383 41.843 2.76156 41.9592 3.02318 42.4534C2.99411 41.9011 3.34295 41.7267 3.779 41.5813C4.21504 41.436 4.70923 41.3488 4.94179 41.029L5.08714 41.6976C4.94179 41.9011 4.4476 41.9302 4.04063 42.1046C3.63365 42.279 3.28481 42.4534 3.40109 43.0348L3.74993 44.4883L5.63946 44.0523L5.78481 44.6337L1.36621 45.6802ZM2.96504 43.3837C2.84877 42.8313 2.58714 42.3953 1.9476 42.5406C1.51156 42.6569 1.24993 42.9476 1.36621 43.4999L1.71504 44.9825L3.25574 44.6046L2.96504 43.3837Z" fill="#FFFCF6"/>
<path id="Vector_3" d="M0.176372 39.5181L0.00195299 36.3785L0.525209 36.3495L0.670558 38.8785L2.12405 38.7913L1.9787 36.4367L2.50195 36.4076L2.61823 38.7913L4.188 38.7041L4.04265 36.146L4.56591 36.1169L4.74033 39.2855L0.176372 39.5181Z" fill="#FFFCF6"/>
<path id="Vector_4" d="M0.0273437 33.6439L0.143623 32.83L4.12618 31.8997L0.52153 29.9811L0.637809 29.1672L5.17269 29.7486L5.08548 30.33L1.30641 29.8358L4.882 31.7544L4.82386 32.2777L0.870367 33.1788L4.64944 33.673L4.56223 34.2544L0.0273437 33.6439Z" fill="#FFFCF6"/>
<path id="Vector_5" d="M1.36523 26.3779L1.53965 25.7965L5.92919 27.1046L5.75477 27.686L1.36523 26.3779Z" fill="#FFFCF6"/>
<path id="Vector_6" d="M6.60011 21.0304C7.64662 21.4955 7.93732 22.3676 7.44313 23.385C6.94895 24.4606 6.16406 24.8676 5.05941 24.3443L2.41406 23.1234L2.67569 22.5711L5.32104 23.792C6.04778 24.1409 6.65825 23.8792 6.97802 23.1525C7.29778 22.4548 7.06523 21.8734 6.33848 21.5536L3.69313 20.3327L3.95476 19.7804L6.60011 21.0304Z" fill="#FFFCF6"/>
<path id="Vector_7" d="M5.4375 17.2226L5.93169 16.5539L9.88518 17.6586L7.6468 14.2284L8.14099 13.5598L11.8329 16.2633L11.484 16.7284L8.43169 14.49L10.641 17.8912L10.3212 18.2981L6.42587 17.1935L9.4782 19.4319L9.12936 19.897L5.4375 17.2226Z" fill="#FFFCF6"/>
<path id="Vector_8" d="M12.6758 9.0545L14.3909 7.77543C15.0886 7.25218 15.7862 7.31032 16.2223 7.89171C16.5421 8.32776 16.6293 8.85101 16.2804 9.28706C16.7746 9.0545 17.0944 9.28706 17.3851 9.6359C17.6758 9.98473 17.9665 10.3917 18.3444 10.4789L17.7921 10.8859C17.5304 10.8278 17.3269 10.3917 16.9781 10.0719C16.6583 9.75218 16.3386 9.51962 15.8735 9.86845L14.6816 10.7696L15.8444 12.3394L15.3502 12.7173L12.6758 9.0545ZM15.4374 9.60683C15.9025 9.25799 16.1932 8.85102 15.7862 8.32776C15.5246 7.97892 15.1176 7.86264 14.6816 8.18241L13.4607 9.08357L14.42 10.3626L15.4374 9.60683Z" fill="#FFFCF6"/>
<path id="Vector_9" d="M19.5654 4.51667C20.8735 3.87714 22.0363 4.57481 22.5886 5.70853C23.1409 6.81318 22.9956 8.17946 21.6874 8.81899C20.3793 9.45853 19.2165 8.76085 18.6642 7.62713C18.0828 6.52248 18.2572 5.1562 19.5654 4.51667ZM21.4258 8.35387C22.4142 7.85969 22.4142 6.78411 22.0072 5.97016C21.6002 5.1562 20.7572 4.4876 19.7688 4.98179C18.7805 5.47597 18.7805 6.55155 19.1874 7.36551C19.5944 8.17946 20.4374 8.84806 21.4258 8.35387Z" fill="#FFFCF6"/>
<path id="Vector_10" d="M25.9594 2.13583C27.3547 1.75792 28.3722 2.68816 28.6919 3.88002C29.0117 5.07187 28.6047 6.38001 27.1803 6.75792C25.7559 7.13582 24.7675 6.20559 24.4477 5.01373C24.157 3.7928 24.564 2.48467 25.9594 2.13583ZM27.064 6.26373C28.1396 5.97304 28.3431 4.92652 28.1105 4.05443C27.878 3.15327 27.1803 2.36839 26.1047 2.63002C25.0291 2.92071 24.8257 3.96723 25.0582 4.83932C25.2908 5.74048 25.9884 6.52536 27.064 6.26373Z" fill="#FFFCF6"/>
<path id="Vector_11" d="M30.8457 1.23464L31.6887 1.1765L33.3166 4.9265L34.5666 1.03115L35.4097 0.973015L35.6422 5.53697L35.0608 5.56604L34.8573 1.7579L33.6364 5.62418L33.1131 5.65325L31.4852 1.93232L31.6887 5.74046L31.1073 5.76953L30.8457 1.23464Z" fill="#FFFCF6"/>
<path id="Vector_12" d="M40.7878 2.86151C40.8168 2.19291 40.4099 1.87314 39.7994 1.78593C39.3052 1.72779 38.7529 1.815 38.6657 2.42547C38.5785 2.97779 39.3052 3.18128 40.0029 3.44291C40.7006 3.70454 41.3982 4.05337 41.2529 4.95454C41.1075 5.91384 40.1192 6.17547 39.3052 6.05919C38.2878 5.91384 37.5029 5.30337 37.6482 4.19872L38.2296 4.28593C38.1134 5.04175 38.7238 5.4778 39.3924 5.56501C39.9448 5.65221 40.5552 5.565 40.6424 4.8964C40.7296 4.28593 40.032 4.05337 39.3343 3.79175C38.6366 3.53012 37.9389 3.21035 38.0552 2.39639C38.1715 1.46616 39.0727 1.17546 39.8866 1.29174C40.8168 1.40802 41.4564 1.96035 41.3401 2.94872L40.7878 2.86151Z" fill="#FFFCF6"/>
<path id="Vector_13" d="M43.1078 5.99949L43.7764 6.20298L43.5729 6.87158L42.9043 6.66809L43.1078 5.99949Z" fill="#FFFCF6"/>
<path id="Vector_14" d="M50.6405 4.72067L52.094 5.53462C52.4428 5.73811 52.9079 5.99974 53.0533 6.26137C53.2277 6.55207 53.2858 6.95905 53.0533 7.36603C52.8207 7.80207 52.4137 7.97649 51.9486 7.91835C52.3847 8.29626 52.4428 8.81952 52.1521 9.3137C51.8323 9.8951 51.0765 10.2149 50.2917 9.77882L48.373 8.70324L50.6405 4.72067ZM49.187 8.52882L50.5242 9.28463C50.9893 9.54626 51.4254 9.42998 51.687 8.99393C51.9777 8.47068 51.6289 8.09277 51.1928 7.83114L49.9719 7.16254L49.187 8.52882ZM50.2044 6.72649L51.251 7.33695C51.8614 7.68579 52.2103 7.59858 52.4428 7.1916C52.7626 6.63928 52.4137 6.34858 51.9486 6.08695L50.9021 5.47649L50.2044 6.72649Z" fill="#FFFCF6"/>
<path id="Vector_15" d="M56.9449 8.81953L57.4681 9.25558L55.9274 13.9067L55.4042 13.4707L55.8984 12.1044L54.4158 10.8835L53.1368 11.6102L52.6426 11.2033L56.9449 8.81953ZM54.8809 10.5928L56.0728 11.5812L56.8286 9.45907L54.8809 10.5928Z" fill="#FFFCF6"/>
<path id="Vector_16" d="M60.494 12.0462L60.901 12.5404L59.6219 16.7555L62.4417 14.3718L62.8196 14.8078L59.3312 17.7729L58.8952 17.2788L60.1452 13.0927L57.3545 15.4474L56.9766 15.0113L60.494 12.0462Z" fill="#FFFCF6"/>
<path id="Vector_17" d="M64.5062 17.2214L64.7969 17.7446L62.8202 18.8784L65.9597 19.7504L66.3376 20.419L63.7795 19.6632L62.4132 22.7446L62.0353 22.076L63.2271 19.4888L62.2388 19.1691L60.8434 19.9539L60.5527 19.4307L64.5062 17.2214Z" fill="#FFFCF6"/>
<path id="Vector_18" d="M68.4887 25.9136L68.634 26.495L66.7154 26.9601L67.2968 29.2857L69.2154 28.8206L69.3608 29.402L64.9131 30.4775L64.7678 29.8961L66.8026 29.402L66.2212 27.0764L64.1864 27.5706L64.041 26.9892L68.4887 25.9136Z" fill="#FFFCF6"/>
<path id="Vector_19" d="M70.0005 34.285C70.0586 35.7385 68.9539 36.5233 67.7039 36.5815C66.4539 36.6396 65.2912 35.971 65.2039 34.5175C65.1167 33.064 66.2505 32.2792 67.5005 32.221C68.7505 32.1629 69.9133 32.8315 70.0005 34.285ZM65.7272 34.4885C65.7853 35.5931 66.7737 36.0292 67.6749 35.971C68.576 35.9129 69.5353 35.4187 69.4772 34.314C69.4191 33.2094 68.4307 32.7733 67.5295 32.8315C66.6284 32.8896 65.6691 33.3838 65.7272 34.4885Z" fill="#FFFCF6"/>
<path id="Vector_20" d="M69.185 40.0693L69.3885 38.5577L69.8827 38.6158L69.4176 42.2495L68.9234 42.1914L69.1269 40.6797L65.1152 40.1565L65.2024 39.546L69.185 40.0693Z" fill="#FFFCF6"/>
<path id="Vector_21" d="M68.8962 44.5466L67.995 47.5698L67.5008 47.4245L68.2276 44.9826L66.8322 44.5756L66.1636 46.8431L65.6694 46.6977L66.338 44.4303L64.8264 43.9942L64.0997 46.4652L63.6055 46.3198L64.5066 43.2675L68.8962 44.5466Z" fill="#FFFCF6"/>
<path id="Vector_22" d="M67.0337 49.9814L66.7721 50.5337L63.1093 48.7895L62.0628 50.9697L61.5977 50.7372L62.9058 48.0046L67.0337 49.9814Z" fill="#FFFCF6"/>
</g>
<g id="icon">
<g id="Rectangle 93">
<path d="M30.2014 29.1711C29.8035 28.6489 29.9546 27.8959 30.5232 27.5676C31.0539 27.2612 31.733 27.4905 31.9694 28.0558L35.1541 35.6711L30.2014 29.1711Z" fill="#FCD043"/>
</g>
<g id="Rectangle 95">
<path d="M41.6521 30.7175C42.1744 30.3196 42.9274 30.4707 43.2556 31.0393C43.562 31.57 43.3328 32.2491 42.7674 32.4856L35.1521 35.6702L41.6521 30.7175Z" fill="#FCD043"/>
</g>
<g id="Rectangle 97">
<path d="M36.2815 27.5817C36.3694 26.931 37.0087 26.5054 37.6429 26.6754C38.2349 26.834 38.553 27.4763 38.3204 28.0432L35.1874 35.68L36.2815 27.5817Z" fill="#FCD043"/>
</g>
<g id="Rectangle 99">
<path d="M43.2889 36.7747C43.9396 36.8626 44.3652 37.5019 44.1952 38.1361C44.0366 38.728 43.3943 39.0461 42.8274 38.8135L35.1906 35.6806L43.2889 36.7747Z" fill="#FCD043"/>
</g>
<g id="Rectangle 94">
<path d="M40.1033 42.1702C40.5012 42.6924 40.3501 43.4454 39.7815 43.7737C39.2508 44.0801 38.5717 43.8509 38.3352 43.2855L35.1506 35.6702L40.1033 42.1702Z" fill="#FCD043"/>
</g>
<g id="Rectangle 96">
<path d="M28.6506 40.6219C28.1284 41.0198 27.3754 40.8687 27.0471 40.3001C26.7407 39.7694 26.9699 39.0902 27.5353 38.8538L35.1506 35.6691L28.6506 40.6219Z" fill="#FCD043"/>
</g>
<g id="Rectangle 98">
<path d="M34.0954 43.7801C34.0075 44.4308 33.3682 44.8564 32.734 44.6865C32.1421 44.5279 31.824 43.8855 32.0566 43.3186L35.1895 35.6818L34.0954 43.7801Z" fill="#FCD043"/>
</g>
<g id="Rectangle 100">
<path d="M27.0919 34.5857C26.4413 34.4977 26.0157 33.8585 26.1856 33.2243C26.3442 32.6323 26.9866 32.3142 27.5535 32.5468L35.1902 35.6798L27.0919 34.5857Z" fill="#FCD043"/>
</g>
</g>
</g>
</svg>
