<svg width="70" height="52" viewBox="0 0 70 52" fill="none" xmlns="http://www.w3.org/2000/svg">
<g id="label">
<g id="text" opacity="0.64">
<path id="Vector" d="M3.51607 51.3179L2.73119 49.4865C2.38235 48.6435 2.64398 48.004 3.39979 47.6551C4.18468 47.3063 4.85328 47.5679 5.20212 48.411L5.75444 49.69L7.46956 48.9342L7.70212 49.4865L3.51607 51.3179ZM5.28933 49.8935L4.82421 48.7889C4.56258 48.1493 4.15561 48.004 3.66142 48.2075C3.16723 48.411 3.02189 48.8179 3.28351 49.4575L3.74863 50.5621L5.28933 49.8935Z" fill="#FFFCF6"/>
<path id="Vector_2" d="M1.36645 45.6797L0.872266 43.5867C0.668777 42.7436 1.01761 42.1332 1.71529 41.9588C2.23854 41.8425 2.7618 41.9588 3.02343 42.4529C2.99436 41.9006 3.3432 41.7262 3.77924 41.5808C4.21529 41.4355 4.70947 41.3483 4.94203 41.0285L5.08738 41.6971C4.94203 41.9006 4.44785 41.9297 4.04087 42.1041C3.63389 42.2785 3.28506 42.4529 3.40134 43.0343L3.75017 44.4878L5.63971 44.0518L5.78506 44.6332L1.36645 45.6797ZM2.96529 43.3832C2.84901 42.8308 2.58738 42.3948 1.94785 42.5402C1.5118 42.6564 1.25017 42.9471 1.36645 43.4995L1.71529 44.982L3.25599 44.6041L2.96529 43.3832Z" fill="#FFFCF6"/>
<path id="Vector_3" d="M0.176372 39.5179L0.00195299 36.3783L0.525209 36.3493L0.670558 38.8783L2.12405 38.7911L1.9787 36.4365L2.50195 36.4074L2.61823 38.7911L4.188 38.7039L4.04265 36.1458L4.56591 36.1167L4.74033 39.2853L0.176372 39.5179Z" fill="#FFFCF6"/>
<path id="Vector_4" d="M0.0280761 33.6436L0.144355 32.8296L4.12691 31.8994L0.522262 29.9808L0.638541 29.1668L5.17343 29.7482L5.08622 30.3296L1.30715 29.8354L4.88273 31.754L4.82459 32.2773L0.8711 33.1784L4.65017 33.6726L4.56296 34.254L0.0280761 33.6436Z" fill="#FFFCF6"/>
<path id="Vector_5" d="M1.36548 26.3775L1.5399 25.7961L5.92943 27.1042L5.75501 27.6856L1.36548 26.3775Z" fill="#FFFCF6"/>
<path id="Vector_6" d="M6.60011 21.0298C7.64662 21.495 7.93732 22.3671 7.44313 23.3845C6.94895 24.4601 6.16406 24.8671 5.05941 24.3438L2.41406 23.1229L2.67569 22.5705L5.32104 23.7915C6.04778 24.1403 6.65825 23.8787 6.97802 23.1519C7.29778 22.4543 7.06523 21.8729 6.33848 21.5531L3.69313 20.3322L3.95476 19.7798L6.60011 21.0298Z" fill="#FFFCF6"/>
<path id="Vector_7" d="M5.43677 17.2219L5.93095 16.5533L9.88444 17.658L7.64607 14.2278L8.14026 13.5592L11.8321 16.2626L11.4833 16.7278L8.43095 14.4894L10.6403 17.8905L10.3205 18.2975L6.42514 17.1929L9.47747 19.4312L9.12863 19.8964L5.43677 17.2219Z" fill="#FFFCF6"/>
<path id="Vector_8" d="M12.676 9.05401L14.3911 7.77494C15.0888 7.25169 15.7865 7.30983 16.2225 7.89123C16.5423 8.32727 16.6295 8.85052 16.2807 9.28657C16.7749 9.05401 17.0946 9.28657 17.3853 9.63541C17.676 9.98425 17.9667 10.3912 18.3446 10.4784L17.7923 10.8854C17.5307 10.8273 17.3272 10.3912 16.9784 10.0715C16.6586 9.75169 16.3388 9.51913 15.8737 9.86796L14.6818 10.7691L15.8446 12.3389L15.3504 12.7168L12.676 9.05401ZM15.4377 9.60634C15.9028 9.2575 16.1935 8.85053 15.7865 8.32727C15.5249 7.97844 15.1179 7.86216 14.6818 8.18192L13.4609 9.08308L14.4202 10.3622L15.4377 9.60634Z" fill="#FFFCF6"/>
<path id="Vector_9" d="M19.5654 4.51636C20.8735 3.87683 22.0363 4.57451 22.5886 5.70823C23.1409 6.81288 22.9956 8.17915 21.6874 8.81869C20.3793 9.45822 19.2165 8.76055 18.6642 7.62683C18.0828 6.52218 18.2572 5.1559 19.5654 4.51636ZM21.4258 8.35357C22.4142 7.85938 22.4142 6.7838 22.0072 5.96985C21.6002 5.1559 20.7572 4.4873 19.7688 4.98148C18.7805 5.47567 18.7805 6.55125 19.1874 7.3652C19.5944 8.17915 20.4374 8.84776 21.4258 8.35357Z" fill="#FFFCF6"/>
<path id="Vector_10" d="M25.9596 2.13534C27.355 1.75744 28.3724 2.68767 28.6922 3.87953C29.012 5.07139 28.605 6.37952 27.1806 6.75743C25.7561 7.13534 24.7678 6.2051 24.448 5.01325C24.1573 3.79232 24.5643 2.48418 25.9596 2.13534ZM27.0643 6.26324C28.1399 5.97255 28.3433 4.92604 28.1108 4.05394C27.8782 3.15278 27.1806 2.3679 26.105 2.62953C25.0294 2.92022 24.8259 3.96674 25.0585 4.83883C25.291 5.73999 25.9887 6.52487 27.0643 6.26324Z" fill="#FFFCF6"/>
<path id="Vector_11" d="M30.8452 1.23421L31.6882 1.17608L33.3161 4.92608L34.5661 1.03073L35.4092 0.972587L35.6417 5.53654L35.0603 5.56562L34.8568 1.75747L33.6359 5.62375L33.1127 5.65282L31.4848 1.93189L31.6882 5.74003L31.1068 5.7691L30.8452 1.23421Z" fill="#FFFCF6"/>
<path id="Vector_12" d="M40.7875 2.86133C40.8166 2.19272 40.4096 1.87296 39.7992 1.78575C39.305 1.72761 38.7526 1.81482 38.6654 2.42528C38.5782 2.97761 39.305 3.1811 40.0026 3.44273C40.7003 3.70435 41.398 4.05319 41.2526 4.95435C41.1073 5.91366 40.1189 6.17529 39.305 6.05901C38.2875 5.91366 37.5026 5.30319 37.648 4.19854L38.2294 4.28575C38.1131 5.04156 38.7236 5.47761 39.3922 5.56482C39.9445 5.65203 40.555 5.56482 40.6422 4.89622C40.7294 4.28575 40.0317 4.05319 39.334 3.79156C38.6364 3.52993 37.9387 3.21017 38.055 2.39621C38.1712 1.46598 39.0724 1.17528 39.8864 1.29156C40.8166 1.40784 41.4561 1.96017 41.3399 2.94854L40.7875 2.86133Z" fill="#FFFCF6"/>
<path id="Vector_13" d="M43.1083 5.99907L43.7769 6.20255L43.5734 6.87115L42.9048 6.66766L43.1083 5.99907Z" fill="#FFFCF6"/>
<path id="Vector_14" d="M50.64 4.72012L52.0935 5.53408C52.4423 5.73756 52.9074 5.99919 53.0528 6.26082C53.2272 6.55152 53.2853 6.9585 53.0528 7.36548C52.8202 7.80152 52.4133 7.97594 51.9481 7.9178C52.3842 8.29571 52.4423 8.81897 52.1516 9.31315C51.8319 9.89455 51.076 10.2143 50.2912 9.77827L48.3726 8.70269L50.64 4.72012ZM49.1865 8.52827L50.5237 9.28408C50.9888 9.54571 51.4249 9.42943 51.6865 8.99338C51.9772 8.47013 51.6284 8.09222 51.1923 7.83059L49.9714 7.16199L49.1865 8.52827ZM50.204 6.72594L51.2505 7.3364C51.8609 7.68524 52.2098 7.59803 52.4423 7.19106C52.7621 6.63873 52.4133 6.34803 51.9481 6.0864L50.9016 5.47594L50.204 6.72594Z" fill="#FFFCF6"/>
<path id="Vector_15" d="M56.9451 8.81917L57.4684 9.25521L55.9277 13.9064L55.4044 13.4703L55.8986 12.104L54.4161 10.8831L53.137 11.6099L52.6428 11.2029L56.9451 8.81917ZM54.8812 10.5924L56.073 11.5808L56.8289 9.4587L54.8812 10.5924Z" fill="#FFFCF6"/>
<path id="Vector_16" d="M60.4935 12.0458L60.9005 12.54L59.6214 16.7551L62.4412 14.3714L62.8191 14.8075L59.3307 17.7726L58.8947 17.2784L60.1447 13.0923L57.354 15.447L56.9761 15.011L60.4935 12.0458Z" fill="#FFFCF6"/>
<path id="Vector_17" d="M64.506 17.221L64.7967 17.7443L62.8199 18.878L65.9595 19.7501L66.3374 20.4187L63.7792 19.6629L62.413 22.7443L62.035 22.0757L63.2269 19.4885L62.2385 19.1687L60.8432 19.9536L60.5525 19.4303L64.506 17.221Z" fill="#FFFCF6"/>
<path id="Vector_18" d="M68.4894 25.9134L68.6348 26.4948L66.7162 26.9599L67.2976 29.2855L69.2162 28.8204L69.3615 29.4018L64.9138 30.4774L64.7685 29.896L66.8034 29.4018L66.222 27.0762L64.1871 27.5704L64.0417 26.989L68.4894 25.9134Z" fill="#FFFCF6"/>
<path id="Vector_19" d="M69.9997 34.2848C70.0579 35.7383 68.9532 36.5232 67.7032 36.5813C66.4532 36.6394 65.2904 35.9708 65.2032 34.5173C65.116 33.0639 66.2497 32.279 67.4997 32.2208C68.7497 32.1627 69.9125 32.8313 69.9997 34.2848ZM65.7265 34.4883C65.7846 35.5929 66.773 36.029 67.6741 35.9708C68.5753 35.9127 69.5346 35.4185 69.4765 34.3139C69.4183 33.2092 68.43 32.7732 67.5288 32.8313C66.6276 32.8894 65.6683 33.3836 65.7265 34.4883Z" fill="#FFFCF6"/>
<path id="Vector_20" d="M69.1852 40.0688L69.3887 38.5572L69.8829 38.6153L69.4178 42.249L68.9236 42.1909L69.1271 40.6793L65.1155 40.156L65.2027 39.5455L69.1852 40.0688Z" fill="#FFFCF6"/>
<path id="Vector_21" d="M68.8964 44.5461L67.9952 47.5693L67.5011 47.424L68.2278 44.9821L66.8325 44.5751L66.1639 46.8426L65.6697 46.6972L66.3383 44.4298L64.8266 43.9938L64.0999 46.4647L63.6057 46.3193L64.5069 43.267L68.8964 44.5461Z" fill="#FFFCF6"/>
<path id="Vector_22" d="M67.033 49.9809L66.7714 50.5332L63.1086 48.789L62.062 50.9692L61.5969 50.7367L62.9051 48.0041L67.033 49.9809Z" fill="#FFFCF6"/>
</g>
<g id="icon">
<g id="Rectangle 93">
<path d="M30.2014 29.1711C29.8035 28.6489 29.9546 27.8959 30.5232 27.5676C31.0539 27.2612 31.733 27.4905 31.9694 28.0558L35.1541 35.6711L30.2014 29.1711Z" fill="#FCD043"/>
</g>
<g id="Rectangle 95">
<path d="M41.6531 30.7177C42.1753 30.3198 42.9283 30.4709 43.2566 31.0395C43.563 31.5702 43.3338 32.2493 42.7684 32.4857L35.1531 35.6704L41.6531 30.7177Z" fill="#FCD043"/>
</g>
<g id="Rectangle 97">
<path d="M36.2815 27.5816C36.3694 26.931 37.0087 26.5054 37.6429 26.6753C38.2349 26.8339 38.553 27.4762 38.3204 28.0432L35.1874 35.6799L36.2815 27.5816Z" fill="#FCD043"/>
</g>
<g id="Rectangle 99">
<path d="M43.2884 36.7751C43.9391 36.863 44.3647 37.5023 44.1948 38.1365C44.0362 38.7284 43.3938 39.0465 42.8269 38.8139L35.1901 35.681L43.2884 36.7751Z" fill="#FCD043"/>
</g>
<g id="Rectangle 94">
<path d="M40.104 42.1704C40.502 42.6926 40.3509 43.4456 39.7822 43.7739C39.2515 44.0803 38.5724 43.851 38.336 43.2857L35.1513 35.6704L40.104 42.1704Z" fill="#FCD043"/>
</g>
<g id="Rectangle 96">
<path d="M28.6504 40.6217C28.1281 41.0197 27.3751 40.8686 27.0469 40.2999C26.7404 39.7692 26.9697 39.0901 27.5351 38.8537L35.1504 35.669L28.6504 40.6217Z" fill="#FCD043"/>
</g>
<g id="Rectangle 98">
<path d="M34.0949 43.7804C34.007 44.431 33.3677 44.8566 32.7335 44.6867C32.1416 44.5281 31.8235 43.8858 32.0561 43.3188L35.189 35.6821L34.0949 43.7804Z" fill="#FCD043"/>
</g>
<g id="Rectangle 100">
<path d="M27.0917 34.5857C26.441 34.4977 26.0154 33.8585 26.1854 33.2243C26.344 32.6323 26.9863 32.3142 27.5533 32.5468L35.19 35.6798L27.0917 34.5857Z" fill="#FCD043"/>
</g>
</g>
</g>
</svg>
